HIERARCHY
ROOT Hips
{
  OFFSET 211.017 103.093 -213.85
  CHANNELS 6 Xposition Yposition Zposition Zrotation Xrotation Yrotation
  JOINT ToSpine
  {
    OFFSET -2.69724 7.43032 -0.144315
    CHANNELS 3 Zrotation Xrotation Yrotation
    JOINT Spine
    {
      OFFSET -0.0310711 10.7595 1.96963
      CHANNELS 3 Zrotation Xrotation Yrotation
      JOINT Spine1
      {
        OFFSET 19.9056 3.91189 0.764692
        CHANNELS 3 Zrotation Xrotation Yrotation
        JOINT Neck
        {
          OFFSET 25.9749 7.03908 -0.130764
          CHANNELS 3 Zrotation Xrotation Yrotation
          JOINT Head
          {
            OFFSET 9.52751 0.295786 -0.907742
            CHANNELS 3 Zrotation Xrotation Yrotation
            End Site
            {
              OFFSET 16.4037 0.713936 2.7358
            }
          }
        }
        JOINT LeftShoulder
        {
          OFFSET 17.7449 4.33886 11.7777
          CHANNELS 3 Zrotation Xrotation Yrotation
          JOINT LeftArm
          {
            OFFSET 0.911315 1.27913 9.80584
            CHANNELS 3 Zrotation Xrotation Yrotation
            JOINT LeftForeArm
            {
              OFFSET 28.6126 1.18197 -3.53199
              CHANNELS 3 Zrotation Xrotation Yrotation
              JOINT LeftHand
              {
                OFFSET 27.5088 0.0218783 0.327423
                CHANNELS 3 Zrotation Xrotation Yrotation
                End Site
                {
                  OFFSET 18.6038 -0.000155887 0.382096
                }
              }
            }
          }
        }
        JOINT RightShoulder
        {
          OFFSET 17.1009 2.89543 -12.2328
          CHANNELS 3 Zrotation Xrotation Yrotation
          JOINT RightArm
          {
            OFFSET 1.4228 0.178766 -10.211
            CHANNELS 3 Zrotation Xrotation Yrotation
            JOINT RightForeArm
            {
              OFFSET 28.733 1.87905 2.64907
              CHANNELS 3 Zrotation Xrotation Yrotation
              JOINT RightHand
              {
                OFFSET 27.4588 0.290562 -0.101845
                CHANNELS 3 Zrotation Xrotation Yrotation
                End Site
                {
                  OFFSET 17.8396 -0.255518 -0.000602873
                }
              }
            }
          }
        }
      }
    }
  }
  JOINT LeftUpLeg
  {
    OFFSET -5.61296 -2.22332 -10.2353
    CHANNELS 3 Zrotation Xrotation Yrotation
    JOINT LeftLeg
    {
      OFFSET 2.56703 -44.7417 -7.93097
      CHANNELS 3 Zrotation Xrotation Yrotation
      JOINT LeftFoot
      {
        OFFSET 3.16933 -46.5642 -3.96578
        CHANNELS 3 Zrotation Xrotation Yrotation
        JOINT LeftToeBase
        {
          OFFSET 0.346054 -6.02161 12.8035
          CHANNELS 3 Zrotation Xrotation Yrotation
          End Site
          {
            OFFSET 0.134235 -1.35082 5.13018
          }
        }
      }
    }
  }
  JOINT RightUpLeg
  {
    OFFSET -5.7928 -1.72406 10.6446
    CHANNELS 3 Zrotation Xrotation Yrotation
    JOINT RightLeg
    {
      OFFSET -2.57161 -44.7178 -7.85259
      CHANNELS 3 Zrotation Xrotation Yrotation
      JOINT RightFoot
      {
        OFFSET -3.10148 -46.5936 -4.03391
        CHANNELS 3 Zrotation Xrotation Yrotation
        JOINT RightToeBase
        {
          OFFSET -0.0828122 -6.13587 12.8035
          CHANNELS 3 Zrotation Xrotation Yrotation
          End Site
          {
            OFFSET -0.131328 -1.35082 5.13018
          }
        }
      }
    }
  }
}
MOTION
Frames:	19
Frame Time:	0.0333333
140.438 105.599 -146.638 79.4756 52.4814 8.59777 -70.1915 0 88.8779 89.6969 71.8443 -7.49352 6.70745 19.8526 3.59541 -144.55 20.4945 172.135 -153.715 58.0932 164.794 2.60586 0.953535 -25.5211 -55.1184 35.0592 -138.609 19.2325 22.9322 -37.8173 6.63206 -0.322394 -3.72987 0.307237 -0.926394 28.9686 -100.965 -51.4681 73.5561 -1.65608 -27.2575 3.08822 6.63149 -0.246914 -5.07365 -67.9008 -2.67625 101.952 2.40333 30.9073 -27.604 7.83208 3.63469 -1.04063 -5.82946 -21.303 9.57652 -45.4562 -1.17744 79.8968 1.17773 31.0724 2.74425 -5.48241 -3.46787 0.916789 3.3549 14.2772 -16.3204 
142.771 105.931 -149.137 77.583 53.0742 9.91771 -70.1915 0 88.8779 87.3251 71.9818 -4.12584 7.03538 20.2458 3.29548 -144.768 20.9926 172.415 -152.567 58.2941 163.399 2.56204 0.729836 -25.3895 -57.2367 35.8231 -139.001 22.9482 24.1477 -42.4547 9.45963 -0.455058 -3.69837 0.297737 -0.873225 28.5661 -104.915 -51.1242 69.0397 -3.49301 -31.5432 -2.4955 6.23077 -0.297825 -6.44836 -70.5151 -3.22391 101.387 2.44113 27.5994 -28.3681 7.30172 4.38794 -0.953761 -6.03048 -22.3806 9.84471 -47.2709 -1.11663 81.7387 2.30255 20.6111 2.06517 -5.67442 -3.47518 0.934586 1.90185 18.2824 -14.8843 
145.339 105.956 -151.669 76.0469 53.3667 10.966 -70.1915 0 88.8779 85.0971 72.1221 -1.00856 7.48849 20.5173 3.21171 -144.966 21.7466 173.249 -153.203 59.2274 164.727 2.57087 0.914592 -25.2217 -57.3027 35.7549 -140.087 22.5376 21.6947 -44.7907 14.2615 -0.582578 -2.89982 0.259393 -0.623796 28.4113 -106.876 -50.6236 65.0482 -3.57178 -34.138 -3.39885 5.41375 -0.284344 -7.16502 -72.4245 -3.31363 101.145 2.57641 26.2325 -29.4931 6.76621 5.45259 -0.855094 -6.49477 -24.9432 10.7693 -47.8595 -1.09863 82.3753 2.5497 16.3434 0.854066 -5.52436 -4.7484 0.950548 1.82958 17.0844 -14.2682 
148.19 105.483 -154.231 75.1925 52.8012 11.2226 -70.1915 0 88.8779 86.2027 72.3894 -1.19261 6.55817 20.9225 2.97385 -145.547 21.6811 173.791 -152.408 58.8916 163.819 2.68585 1.32894 -25.7938 -58.6772 36.1789 -138.542 24.4429 22.3739 -46.7632 14.6116 -0.666592 -3.43001 0.216983 -0.34651 28.5626 -106.572 -50.4562 62.5969 -3.09571 -33.9213 -2.15313 5.7564 -0.297297 -6.99915 -73.3147 -3.31681 100.954 2.85835 27.6995 -29.91 7.31614 5.43098 -0.947081 -6.92007 -27.508 11.804 -47.4673 -1.19995 82.0133 2.76075 18.317 -1.15596 -5.35828 -3.64312 0.909726 -0.900134 22.0791 -10.9783 
151.056 105.297 -156.917 75.9113 52.0515 10.829 -70.1915 0 88.8779 88.4409 72.3212 -2.1267 7.0844 20.9171 2.70419 -146.966 21.3887 174.913 -151.577 58.2368 162.895 2.83713 1.73109 -26.6844 -60.8162 37.723 -135.208 26.4993 23.2935 -48.4856 16.0327 -0.73402 -3.44583 0.205382 -0.27026 28.5277 -105.287 -50.3995 62.9354 -2.67118 -32.5942 -0.689045 5.28756 -0.234384 -6.12538 -75.186 -3.79698 98.1671 3.45655 29.0966 -27.6175 6.07395 5.28841 -0.742663 -7.06003 -28.4085 12.1297 -47.3791 -0.804978 81.1233 2.3044 22.2097 -1.6944 -4.73181 -0.836662 0.768663 -1.3367 29.0358 -12.8109 
153.611 105.345 -159.463 76.1284 50.9068 11.3078 -70.1915 0 88.8779 91.7518 71.9318 -3.42415 6.78008 20.7116 2.49882 -147.181 20.9673 175.754 -150.696 57.5018 162.452 2.93609 1.89587 -27.3743 -62.5427 40.0504 -131.501 26.6092 25.0538 -46.6419 19.5277 -0.937234 -3.68222 0.204215 -0.259032 28.3176 -104.704 -50.3723 63.7641 -2.14384 -29.579 0.747936 5.00673 -0.200216 -5.60356 -75.5496 -5.28454 88.316 0.62546 32.7015 -16.0985 4.90226 5.30567 -0.548112 -7.09419 -28.7294 12.7377 -47.1593 -0.297847 79.3522 2.33405 26.1799 1.30293 -4.43217 -0.714293 0.730324 -1.77459 26.8047 -11.2411 
156.173 105.277 -161.708 75.1239 50.4524 13.0615 -70.1915 0 88.8779 91.8441 71.3856 -2.05286 6.718 20.2379 3.35576 -146.906 20.4901 175.955 -149.939 56.7157 161.511 2.96961 1.91981 -27.6497 -62.1708 41.9171 -129.656 24.0094 26.3528 -41.6489 19.0577 -0.646953 -2.11913 0.254222 -0.591538 27.6466 -103.98 -50.9523 65.4202 -1.68531 -27.8893 2.16731 5.21874 -0.187482 -5.04462 -72.6772 -4.65996 84.255 -2.54309 39.9551 -9.36514 2.62163 2.9641 -0.283771 -6.37358 -24.0753 12.3714 -46.8933 0.87822 78.6231 2.16092 29.057 2.10035 -5.27453 -1.71963 0.853248 -0.565755 26.2251 -13.1726 
158.596 105.017 -163.823 74.7799 50.5934 13.9822 -70.1915 0 88.8779 94.2437 70.8541 -3.42237 5.76853 20.1195 3.85317 -145.083 20.3392 174.907 -149.644 56.6774 162.224 2.84663 1.57802 -26.9915 -59.1266 42.9357 -130.532 19.0622 26.9051 -33.3615 17.6959 -0.57535 -1.9636 0.302441 -0.91459 28.0596 -105.131 -50.7059 64.8279 0.208029 -27.5227 5.26988 5.24001 -0.173986 -4.68856 -68.0674 -2.43706 87.4069 -3.45044 49.5808 -8.28751 1.02191 2.83924 -0.0578097 -5.35772 -18.5733 9.69088 -47.0774 1.25118 77.7773 2.43793 32.1958 2.30785 -5.74474 -3.7301 0.946498 -0.0145808 24.5878 -13.5787 
161.124 104.703 -165.882 74.468 50.3883 15.4774 -70.1915 0 88.8779 96.5737 70.6334 -4.04291 5.37478 20.2654 4.18904 -145.279 20.6764 174.873 -152.963 57.8273 164.575 2.86257 1.60029 -27.1108 -54.3383 41.7049 -133.141 13.9137 25.1693 -25.4755 13.4203 -0.316993 -0.984992 0.292548 -0.850399 27.9317 -103.679 -51.5682 66.7903 0.815758 -25.5649 7.84799 6.50559 -0.179752 -3.86861 -62.9526 0.36462 89.1892 -4.53619 58.5267 -4.01059 1.65895 6.25026 0.0439045 -6.53389 -25.1374 11.7137 -47.8483 2.14467 76.5179 3.1632 34.2318 1.67844 -6.2561 -6.92963 1.04687 -0.797136 25.4766 -12.4858 
163.892 104.312 -167.968 75.3099 50.0376 16.8501 -70.1915 0 88.8779 99.9094 70.5233 -4.86986 5.94162 20.535 4.29492 -146.203 20.8384 174.714 -154.274 58.3154 165.674 2.938 1.44403 -28.0646 -60.4623 44.7513 -129.044 8.05993 31.8942 -18.8259 8.35129 -0.287864 -2.1939 0.311029 -0.970166 28.1446 -99.3143 -52.1196 72.5193 0.453491 -22.6225 9.77008 8.01536 -0.248452 -4.21369 -58.2729 3.7884 89.7249 -5.38731 65.9801 3.67713 3.99187 7.74896 -0.307018 -7.59908 -31.3352 11.1113 -49.643 4.82173 76.4824 3.57589 35.4648 0.718368 -6.08927 -8.7315 1.0702 0.343728 23.8819 -13.981 
166.498 104.155 -170.162 76.3245 49.9952 16.8853 -70.1915 0 88.8779 102.372 70.3719 -6.21996 6.16556 20.7869 4.03065 -145.958 20.7166 173.513 -153.196 58.1462 165.504 2.85118 1.07314 -27.7961 -82.9315 52.5408 -112.8 1.50975 53.0562 -9.96681 2.21382 -0.100838 -3.245 0.291447 -0.829283 28.7468 -95.6201 -52.243 78.3309 0.686646 -22.4039 10.9162 8.57554 -0.259182 -4.09583 -54.1467 4.99155 89.3991 -6.8035 70.9794 7.81661 3.52977 8.10354 -0.206271 -8.17372 -34.6576 11.3758 -52.0329 6.18507 76.5874 3.87695 35.979 0.528064 -6.36703 -9.57936 1.09674 1.56071 20.0665 -14.8871 
169.058 104.05 -172.454 76.277 49.2605 16.4778 -70.1915 0 88.8779 101.445 70.7364 -5.25322 6.44063 21.2664 3.98194 -146.239 20.4118 172.819 -152.228 57.6327 164.314 2.85074 1.02736 -27.8641 -88.3885 54.1184 -108.617 -11.4531 62.2547 6.64766 0.766993 -0.030694 -2.47636 0.323176 -1.03069 28.8685 -90.6342 -52.3953 85.5656 1.28349 -21.1285 12.6479 8.63017 -0.278273 -4.34284 -49.8763 4.27284 89.3773 -8.26134 73.2875 8.75119 4.1083 7.37264 -0.342246 -8.22997 -34.6703 10.7884 -53.5017 6.35309 76.5554 3.69619 36.9943 1.443 -7.26602 -11.657 1.14867 1.93741 19.2919 -15.3366 
171.59 104.121 -174.974 76.6169 47.8604 15.1864 -70.1915 0 88.8779 100.986 71.3428 -5.04827 6.06733 21.8842 3.88625 -145.935 19.8542 172.5 -151.413 56.8621 163.585 2.90303 1.00815 -28.4155 -94.5848 54.8407 -102.392 -20.8915 66.0449 18.3176 0.723482 -0.0199411 -1.48102 0.277477 -0.742863 28.4066 -83.7327 -53.1712 92.5771 3.76881 -17.9745 16.5915 7.31928 -0.201239 -3.80868 -46.6704 3.10296 90.3541 -8.15249 72.5697 7.30034 4.61289 8.47258 -0.400127 -9.17404 -38.3203 8.90389 -55.5802 5.97012 76.4803 3.32361 37.2378 3.39309 -7.73976 -12.7407 1.16268 2.35978 16.7696 -15.2228 
174.275 104.158 -177.49 76.9882 46.8559 14.8306 -70.1915 0 88.8779 101.175 71.7174 -4.52245 5.74122 22.35 3.34952 -145.465 19.6109 171.865 -150.427 56.4996 163.416 2.87932 0.786311 -28.5447 -101.477 55.0482 -94.7681 -20.9572 68.3121 20.162 0.313276 0.00088998 0.186325 0.296681 -0.865274 28.6243 -73.8103 -52.323 101.944 5.39492 -12.5556 20.1134 6.65751 -0.18182 -3.81936 -44.3006 2.27392 90.0689 -6.85949 69.6988 4.80771 3.55317 6.12393 -0.291072 -8.64388 -36.6669 10.4611 -58.0371 6.84541 76.8335 2.54655 36.7499 5.01167 -7.5102 -12.838 1.16094 2.74136 14.9458 -15.2893 
176.599 104.388 -179.889 77.5278 45.5978 13.2069 -70.1915 0 88.8779 103.67 72.3253 -7.15606 4.70306 23.0711 2.6459 -145.698 19.4159 172.057 -150.006 56.1827 163.355 2.9187 0.706535 -29.0817 -107.277 54.1655 -88.0097 -19.9128 69.0203 20.8289 -0.284118 0.00970085 2.20216 0.282119 -0.77856 28.0208 -68.9182 -52.1803 106.684 7.38592 -9.51012 25.0951 6.59975 -0.161776 -3.46903 -43.0479 0.895405 91.0735 -4.7624 63.6571 2.27861 4.03566 5.08641 -0.412408 -8.71282 -36.6978 9.9101 -60.7468 5.85816 76.5997 2.2471 35.9463 7.52763 -7.82964 -12.493 1.16275 3.76436 10.7706 -15.7707 
179.171 104.534 -182.246 76.695 44.4121 13.5517 -70.1915 0 88.8779 100.419 72.8875 -3.61905 5.11905 23.2713 2.21833 -146.178 19.0714 172.022 -149.108 55.6718 163.544 2.98978 1.06154 -29.1872 -112.036 53.3019 -82.1044 -21.1657 71.5146 23.5668 -0.90778 0.00557275 2.50295 0.299397 -0.891568 28.1859 -69.6393 -51.2798 107.393 9.20155 -10.7541 30.581 6.89454 -0.1353 -2.83941 -41.3932 0.0859846 90.6158 -3.12241 56.0362 1.01437 3.83324 4.39695 -0.405623 -8.41293 -35.7894 11.05 -62.9895 6.35414 77.0716 1.9246 34.0389 8.36832 -8.58278 -12.7723 1.1712 4.36655 8.64561 -16.2198 
181.538 104.843 -184.488 76.6099 43.7491 12.927 -70.1915 0 88.8779 99.7855 73.3486 -3.68101 4.93674 23.3964 2.25496 -146.824 19.3165 172.519 -149.214 56.0197 164.575 3.03068 1.15155 -29.4373 -113.283 52.2225 -78.4904 -18.1538 68.8442 20.6573 -0.211982 0.00955305 1.76436 0.320723 -1.03985 27.9769 -70.0203 -50.6757 107.915 11.6047 -12.1621 36.1641 9.22699 -0.0496003 -1.02622 -41.7738 -1.17948 90.2636 -1.90545 45.4802 -0.00909839 3.58186 5.38777 -0.325782 -7.76704 -33.18 13.2523 -65.8396 5.95641 77.1998 1.75133 32.079 9.58237 -8.18884 -12.6661 1.16726 4.11892 8.60951 -15.6253 
184.007 105.27 -186.594 75.9165 42.7876 13.1411 -70.1915 0 88.8779 96.3406 73.8122 -0.657994 5.28119 23.4843 2.23404 -146.914 18.9707 172.503 -148.676 55.5345 164.425 3.05941 1.28332 -29.4945 -113.428 51.3746 -75.835 -17.8324 68.1174 20.001 -2.13694 0.0134983 1.46963 0.292123 -0.849273 27.8338 -69.2649 -50.0366 109.255 13.335 -12.7204 40.1895 9.60392 -0.0465428 -0.959213 -42.4267 -1.48915 90.0641 -1.32932 33.859 -1.73123 3.15945 6.63574 -0.200468 -6.73757 -26.5885 15.7522 -68.5495 6.19156 77.6715 1.77458 29.0997 10.2725 -7.62221 -11.5567 1.15523 3.90365 8.27927 -14.9696 
186.444 105.537 -188.852 75.2681 41.6227 12.9978 -70.1915 0 88.8779 91.8173 74.2144 3.36263 6.17683 23.8041 1.66044 -147.247 18.7147 172.239 -148.91 55.2771 164.149 3.05631 1.54009 -29.0421 -114.579 51.0623 -73.4879 -15.916 66.0213 18.3418 -4.34342 0.0338698 1.02731 0.287846 -0.814476 28.1891 -68.4413 -48.8378 110.791 14.7724 -13.0529 43.3134 8.10219 -0.0590883 -1.27196 -43.8439 -1.73257 92.8624 0.242547 22.4044 -7.98823 2.30347 7.75514 0.00873964 -5.8396 -18.0549 17.4379 -70.711 5.74802 77.764 1.6468 27.343 12.1676 -6.82691 -10.4308 1.12482 4.04846 7.28465 -14.8388 
